# xmcd
#
# Track frame offsets:
#	150
#	9578
#	20991
#	37221
#	52008
#	66935
#	78878
#	90671
#	105386
#	117208
#
# Disc length: 1724 seconds
#
# Revision: 1
# Processed by: cddbd v1.5.2PL0 Copyright (c) Steve Scherf et al.
# Submitted via: audiograbber 1.83.01
#
DISCID=8006ba0a
DTITLE=Sunny Lee - Falling in love
DYEAR=2001
DGENRE=Country
TTITLE0=Falling in love
TTITLE1=Rainy day woman
TTITLE2=If returning ever crosses your mind
TTITLE3=Without a word
TTITLE4=Champgane, Cadillacs and Cash
TTITLE5=Hey there lonely
TTITLE6=Keep on lovin' you
TTITLE7=Pieces of my heart
TTITLE8=While I'm losing you again
TTITLE9=I can count on you
EXTD=
EXTT0=
EXTT1=
EXTT2=
EXTT3=
EXTT4=
EXTT5=
EXTT6=
EXTT7=
EXTT8=
EXTT9=
PLAYORDER=
